<svg width="115" height="32" viewBox="0 0 115 32" fill="none" xmlns="http://www.w3.org/2000/svg">
<path d="M7.46389 18.6728L11.7552 12.2379H0.692603C0.567356 12.2377 0.444393 12.2715 0.336859 12.3357C0.229325 12.3999 0.141268 12.4921 0.0820764 12.6025C0.0228849 12.7129 -0.00521374 12.8373 0.000796317 12.9624C0.00680637 13.0875 0.0466937 13.2086 0.116193 13.3128L12.1613 31.3866C12.2843 31.571 12.4508 31.7221 12.6462 31.8266C12.8416 31.9311 13.0598 31.9857 13.2813 31.9856H29.6403C29.7655 31.9858 29.8885 31.9521 29.996 31.8878C30.1036 31.8236 30.1916 31.7314 30.2508 31.621C30.31 31.5106 30.3381 31.3863 30.3321 31.2612C30.3261 31.1361 30.2862 31.0149 30.2167 30.9107L22.7808 19.7518H8.03824C7.91317 19.7516 7.79048 19.7176 7.68324 19.6532C7.576 19.5888 7.48823 19.4966 7.42928 19.3863C7.37034 19.276 7.34242 19.1517 7.34852 19.0268C7.35461 18.9019 7.39448 18.7809 7.46389 18.6769" fill="#211F21"/>
<path d="M25.5172 19.1508L37.5623 1.07487C37.6318 0.970678 37.6717 0.849558 37.6777 0.724454C37.6837 0.599351 37.6556 0.474966 37.5964 0.364588C37.5372 0.254209 37.4492 0.161985 37.3416 0.0977702C37.2341 0.0335556 37.1111 -0.000237897 36.9859 1.26063e-06H20.6269C20.4056 -0.000290201 20.1877 0.0542658 19.9926 0.15879C19.7975 0.263314 19.6313 0.414548 19.509 0.598975L11.7551 12.238H17.0536C17.2749 12.2377 17.4929 12.2922 17.6879 12.3967C17.883 12.5013 18.0492 12.6525 18.1715 12.8369L22.7808 19.7518H24.3992C24.6203 19.7521 24.8381 19.6978 25.0331 19.5937C25.2282 19.4895 25.3945 19.3388 25.5172 19.1549" fill="#A182ED"/>
<path d="M17.0536 12.2379H11.7551L7.46385 18.6769C7.39445 18.781 7.35457 18.9019 7.34848 19.0268C7.34238 19.1517 7.3703 19.276 7.42924 19.3863C7.48819 19.4966 7.57596 19.5889 7.6832 19.6532C7.79044 19.7176 7.91313 19.7516 8.03821 19.7518H22.7808L18.1715 12.8328C18.0492 12.6484 17.883 12.4971 17.6879 12.3926C17.4929 12.2881 17.2749 12.2335 17.0536 12.2338" fill="#543D8A"/>
<path d="M44.908 9.27793C44.9067 9.18569 44.9238 9.09411 44.9585 9.00862C44.9931 8.92313 45.0446 8.84547 45.1098 8.78024C45.1751 8.71501 45.2527 8.66354 45.3382 8.62887C45.4237 8.59421 45.5153 8.57706 45.6075 8.57845H49.0188C49.2037 8.58058 49.3803 8.65496 49.5111 8.78568C49.6418 8.9164 49.7162 9.09308 49.7183 9.27793V16.9436L56.1901 8.86973C56.332 8.70713 56.5295 8.60327 56.7439 8.57845H60.4178C60.5418 8.58042 60.6629 8.61676 60.7675 8.68343C60.8722 8.75009 60.9563 8.84447 61.0105 8.95607C61.0647 9.06767 61.0869 9.19211 61.0746 9.31556C61.0623 9.43902 61.016 9.55665 60.9409 9.65537L54.1204 18.1969L61.5542 27.8769C61.6262 27.9789 61.6688 28.0986 61.6775 28.2231C61.6862 28.3477 61.6606 28.4722 61.6035 28.5832C61.5465 28.6942 61.4601 28.7874 61.3537 28.8527C61.2474 28.9181 61.1252 28.9531 61.0003 28.9538H56.9778C56.7835 28.9524 56.5965 28.8794 56.4527 28.7487L49.7183 19.5959V28.2831C49.7156 28.4678 49.6411 28.6441 49.5105 28.7747C49.3799 28.9054 49.2035 28.9799 49.0188 28.9825H45.6075C45.5154 28.9837 45.4239 28.9663 45.3386 28.9315C45.2532 28.8968 45.1756 28.8453 45.1105 28.7801C45.0453 28.715 44.9938 28.6374 44.959 28.552C44.9243 28.4667 44.9069 28.3752 44.908 28.2831V9.27793Z" fill="#211F21"/>
<path d="M73.0987 24.6113C74.2544 24.6174 75.3858 24.2799 76.3494 23.6419C77.313 23.0038 78.0652 22.0938 78.5107 21.0274C78.9561 19.961 79.0747 18.7863 78.8513 17.6524C78.6279 16.5185 78.0727 15.4765 77.2561 14.6588C76.4395 13.841 75.3983 13.2843 74.2647 13.0593C73.1311 12.8344 71.9563 12.9513 70.8893 13.3952C69.8222 13.8391 68.9112 14.5901 68.2717 15.5528C67.6323 16.5154 67.2933 17.6464 67.2977 18.802C67.3085 20.3372 67.9231 21.8065 69.0087 22.8921C70.0943 23.9777 71.5635 24.5923 73.0987 24.6031M73.0987 8.27691C75.175 8.27002 77.2066 8.87904 78.9367 10.0269C80.6668 11.1748 82.0176 12.81 82.8182 14.7257C83.6188 16.6414 83.8333 18.7515 83.4346 20.7891C83.0359 22.8267 82.0418 24.7003 80.5781 26.1728C79.1144 27.6454 77.2469 28.6508 75.2118 29.0619C73.1766 29.473 71.0653 29.2712 69.1448 28.4822C67.2243 27.6932 65.5809 26.3524 64.4226 24.6293C63.2642 22.9062 62.6429 20.8783 62.6372 18.802C62.6307 17.4234 62.8964 16.057 63.4191 14.7813C63.9418 13.5055 64.7111 12.3455 65.683 11.3677C66.6549 10.3899 67.8102 9.61354 69.0828 9.08316C70.3554 8.55277 71.7201 8.27879 73.0987 8.27691Z" fill="#211F21"/>
<path d="M91.1747 8.57849H87.6772C87.3714 8.57849 87.1234 8.82646 87.1234 9.13234V28.4308C87.1234 28.7367 87.3714 28.9846 87.6772 28.9846H91.1747C91.4806 28.9846 91.7285 28.7367 91.7285 28.4308V9.13234C91.7285 8.82646 91.4806 8.57849 91.1747 8.57849Z" fill="#211F21"/>
<path d="M96.7131 8.81026C96.719 8.66788 96.7801 8.53339 96.8835 8.43534C96.9869 8.3373 97.1245 8.28341 97.267 8.28514H97.989L109.62 19.481H109.649V9.13232C109.649 8.98543 109.707 8.84455 109.811 8.74069C109.915 8.63682 110.055 8.57847 110.202 8.57847H113.702C113.847 8.58357 113.985 8.64356 114.088 8.74634C114.191 8.84912 114.251 8.98705 114.256 9.13232V28.7508C114.25 28.8932 114.189 29.0276 114.085 29.1257C113.982 29.2237 113.844 29.2776 113.702 29.2759H113.234C113.099 29.2579 112.969 29.2079 112.857 29.1303L101.341 17.5569H101.312V28.4287C101.312 28.5756 101.254 28.7165 101.15 28.8204C101.046 28.9242 100.905 28.9826 100.758 28.9826H97.2977C97.1523 28.978 97.0141 28.9181 96.9112 28.8152C96.8084 28.7124 96.7485 28.5741 96.7439 28.4287L96.7131 8.81026Z" fill="#211F21"/>
</svg>
