<svg width="40" height="40" viewBox="0 0 40 40" fill="none" xmlns="http://www.w3.org/2000/svg">
<rect width="40" height="40" rx="20" fill="#29A46A"/>
<g clip-path="url(#clip0_132_1545)">
<path d="M16.6667 27.4999H13.3334C13.1124 27.4999 12.9004 27.4121 12.7441 27.2558C12.5878 27.0996 12.5 26.8876 12.5 26.6666V23.3333C12.5 23.1122 12.4122 22.9003 12.256 22.744C12.0997 22.5877 11.8877 22.4999 11.6667 22.4999C11.4457 22.4999 11.2337 22.5877 11.0775 22.744C10.9212 22.9003 10.8334 23.1122 10.8334 23.3333V26.6666C10.8334 27.3296 11.0968 27.9655 11.5656 28.4344C12.0344 28.9032 12.6703 29.1666 13.3334 29.1666H16.6667C16.8877 29.1666 17.0997 29.0788 17.256 28.9225C17.4122 28.7662 17.5 28.5543 17.5 28.3333C17.5 28.1122 17.4122 27.9003 17.256 27.744C17.0997 27.5877 16.8877 27.4999 16.6667 27.4999ZM28.3334 22.4999C28.1124 22.4999 27.9004 22.5877 27.7441 22.744C27.5878 22.9003 27.5 23.1122 27.5 23.3333V26.6666C27.5 26.8876 27.4122 27.0996 27.256 27.2558C27.0997 27.4121 26.8877 27.4999 26.6667 27.4999H23.3334C23.1124 27.4999 22.9004 27.5877 22.7441 27.744C22.5878 27.9003 22.5 28.1122 22.5 28.3333C22.5 28.5543 22.5878 28.7662 22.7441 28.9225C22.9004 29.0788 23.1124 29.1666 23.3334 29.1666H26.6667C27.3297 29.1666 27.9656 28.9032 28.4345 28.4344C28.9033 27.9655 29.1667 27.3296 29.1667 26.6666V23.3333C29.1667 23.1122 29.0789 22.9003 28.9226 22.744C28.7663 22.5877 28.5544 22.4999 28.3334 22.4999ZM26.6667 10.8333H23.3334C23.1124 10.8333 22.9004 10.921 22.7441 11.0773C22.5878 11.2336 22.5 11.4456 22.5 11.6666C22.5 11.8876 22.5878 12.0996 22.7441 12.2558C22.9004 12.4121 23.1124 12.4999 23.3334 12.4999H26.6667C26.8877 12.4999 27.0997 12.5877 27.256 12.744C27.4122 12.9003 27.5 13.1122 27.5 13.3333V16.6666C27.5 16.8876 27.5878 17.0996 27.7441 17.2558C27.9004 17.4121 28.1124 17.4999 28.3334 17.4999C28.5544 17.4999 28.7663 17.4121 28.9226 17.2558C29.0789 17.0996 29.1667 16.8876 29.1667 16.6666V13.3333C29.1667 12.6702 28.9033 12.0343 28.4345 11.5655C27.9656 11.0966 27.3297 10.8333 26.6667 10.8333ZM11.6667 17.4999C11.8877 17.4999 12.0997 17.4121 12.256 17.2558C12.4122 17.0996 12.5 16.8876 12.5 16.6666V13.3333C12.5 13.1122 12.5878 12.9003 12.7441 12.744C12.9004 12.5877 13.1124 12.4999 13.3334 12.4999H16.6667C16.8877 12.4999 17.0997 12.4121 17.256 12.2558C17.4122 12.0996 17.5 11.8876 17.5 11.6666C17.5 11.4456 17.4122 11.2336 17.256 11.0773C17.0997 10.921 16.8877 10.8333 16.6667 10.8333H13.3334C12.6703 10.8333 12.0344 11.0966 11.5656 11.5655C11.0968 12.0343 10.8334 12.6702 10.8334 13.3333V16.6666C10.8334 16.8876 10.9212 17.0996 11.0775 17.2558C11.2337 17.4121 11.4457 17.4999 11.6667 17.4999ZM18.3334 14.1666H15C14.779 14.1666 14.5671 14.2544 14.4108 14.4107C14.2545 14.5669 14.1667 14.7789 14.1667 14.9999V18.3333C14.1667 18.5543 14.2545 18.7662 14.4108 18.9225C14.5671 19.0788 14.779 19.1666 15 19.1666H18.3334C18.5544 19.1666 18.7663 19.0788 18.9226 18.9225C19.0789 18.7662 19.1667 18.5543 19.1667 18.3333V14.9999C19.1667 14.7789 19.0789 14.5669 18.9226 14.4107C18.7663 14.2544 18.5544 14.1666 18.3334 14.1666ZM17.5 17.4999H15.8334V15.8333H17.5V17.4999ZM21.6667 19.1666H25C25.2211 19.1666 25.433 19.0788 25.5893 18.9225C25.7456 18.7662 25.8334 18.5543 25.8334 18.3333V14.9999C25.8334 14.7789 25.7456 14.5669 25.5893 14.4107C25.433 14.2544 25.2211 14.1666 25 14.1666H21.6667C21.4457 14.1666 21.2337 14.2544 21.0775 14.4107C20.9212 14.5669 20.8334 14.7789 20.8334 14.9999V18.3333C20.8334 18.5543 20.9212 18.7662 21.0775 18.9225C21.2337 19.0788 21.4457 19.1666 21.6667 19.1666ZM22.5 15.8333H24.1667V17.4999H22.5V15.8333ZM18.3334 20.8333H15C14.779 20.8333 14.5671 20.921 14.4108 21.0773C14.2545 21.2336 14.1667 21.4456 14.1667 21.6666V24.9999C14.1667 25.2209 14.2545 25.4329 14.4108 25.5892C14.5671 25.7455 14.779 25.8333 15 25.8333H18.3334C18.5544 25.8333 18.7663 25.7455 18.9226 25.5892C19.0789 25.4329 19.1667 25.2209 19.1667 24.9999V21.6666C19.1667 21.4456 19.0789 21.2336 18.9226 21.0773C18.7663 20.921 18.5544 20.8333 18.3334 20.8333ZM17.5 24.1666H15.8334V22.4999H17.5V24.1666ZM21.6667 23.3333C21.8877 23.3333 22.0997 23.2455 22.256 23.0892C22.4122 22.9329 22.5 22.7209 22.5 22.4999C22.7211 22.4999 22.933 22.4121 23.0893 22.2558C23.2456 22.0996 23.3334 21.8876 23.3334 21.6666C23.3334 21.4456 23.2456 21.2336 23.0893 21.0773C22.933 20.921 22.7211 20.8333 22.5 20.8333H21.6667C21.4457 20.8333 21.2337 20.921 21.0775 21.0773C20.9212 21.2336 20.8334 21.4456 20.8334 21.6666V22.4999C20.8334 22.7209 20.9212 22.9329 21.0775 23.0892C21.2337 23.2455 21.4457 23.3333 21.6667 23.3333ZM25 20.8333C24.779 20.8333 24.5671 20.921 24.4108 21.0773C24.2545 21.2336 24.1667 21.4456 24.1667 21.6666V24.1666C23.9457 24.1666 23.7337 24.2544 23.5774 24.4107C23.4212 24.5669 23.3334 24.7789 23.3334 24.9999C23.3334 25.2209 23.4212 25.4329 23.5774 25.5892C23.7337 25.7455 23.9457 25.8333 24.1667 25.8333H25C25.2211 25.8333 25.433 25.7455 25.5893 25.5892C25.7456 25.4329 25.8334 25.2209 25.8334 24.9999V21.6666C25.8334 21.4456 25.7456 21.2336 25.5893 21.0773C25.433 20.921 25.2211 20.8333 25 20.8333ZM21.6667 24.1666C21.5019 24.1666 21.3408 24.2155 21.2037 24.307C21.0667 24.3986 20.9599 24.5287 20.8968 24.681C20.8337 24.8333 20.8172 25.0008 20.8494 25.1625C20.8815 25.3241 20.9609 25.4726 21.0775 25.5892C21.194 25.7057 21.3425 25.7851 21.5041 25.8172C21.6658 25.8494 21.8333 25.8329 21.9856 25.7698C22.1379 25.7067 22.268 25.5999 22.3596 25.4629C22.4512 25.3259 22.5 25.1647 22.5 24.9999C22.5 24.7789 22.4122 24.5669 22.256 24.4107C22.0997 24.2544 21.8877 24.1666 21.6667 24.1666Z" fill="white"/>
</g>
<defs>
<clipPath id="clip0_132_1545">
<rect width="20" height="20" fill="white" transform="translate(10 10)"/>
</clipPath>
</defs>
</svg>
