<svg width="291" height="218" viewBox="0 0 291 218" fill="none" xmlns="http://www.w3.org/2000/svg">
<path d="M282.563 83.1703L285.554 88.616L291 91.6072L285.554 94.582L282.563 100.028L279.588 94.582L274.143 91.6072L279.588 88.616L282.563 83.1703Z" fill="#543D8A"/>
<path d="M175.87 0.5L177.886 4.19011L181.576 6.20585L177.886 8.2216L175.87 11.9117L173.854 8.2216L170.164 6.20585L173.854 4.19011L175.87 0.5Z" fill="#543D8A"/>
<path d="M8.43686 89.2178L11.4117 94.6636L16.8575 97.6547L11.4117 100.63L8.43686 106.075L5.46201 100.63L0 97.6547L5.46201 94.6636L8.43686 89.2178Z" fill="#543D8A"/>
<path d="M245.923 49.3089L247.695 52.5601L250.962 54.332L247.695 56.1202L245.923 59.3714L244.134 56.1202L240.883 54.332L244.134 52.5601L245.923 49.3089Z" fill="#543D8A"/>
<path d="M118.75 8.62122L119.627 10.2631L121.253 11.1409L119.627 12.035L118.75 13.6606L117.856 12.035L116.23 11.1409L117.856 10.2631L118.75 8.62122Z" fill="#543D8A"/>
<path d="M31.5318 194.794L33.9864 199.281L38.4731 201.736L33.9864 204.207L31.5318 208.693L29.0609 204.207L24.5742 201.736L29.0609 199.281L31.5318 194.794Z" fill="#543D8A"/>
<path d="M15.9906 173.25L17.8113 176.549L21.095 178.354L17.8113 180.158L15.9906 183.458L14.1862 180.158L10.8862 178.354L14.1862 176.549L15.9906 173.25Z" fill="#543D8A"/>
<path d="M254.649 207.5L256.291 210.507L259.298 212.149L256.291 213.791L254.649 216.798L253.007 213.791L250 212.149L253.007 210.507L254.649 207.5Z" fill="#543D8A"/>
<path d="M62.3284 13.5891L64.1003 16.8403L67.3515 18.6122L64.1003 20.4003L62.3284 23.6515L60.5403 20.4003L57.2891 18.6122L60.5403 16.8403L62.3284 13.5891Z" fill="#543D8A"/>
<g clip-path="url(#clip0_46_4382)">
<rect x="44" y="17.5" width="200" height="200" rx="100" fill="#F2F6F6"/>
<path d="M64.8755 129.391C66.7186 126.643 68.5666 123.852 69.7227 120.749C70.8788 117.645 71.31 114.158 70.2534 111.016C69.1967 107.875 66.4628 105.193 63.1792 104.809C58.1803 100.881 51.4994 99.0521 45.4818 101.094C42.4748 102.149 39.771 103.922 37.6057 106.26C35.4404 108.598 33.8793 111.429 33.0581 114.508C30.9307 122.824 34.4796 131.699 32.9444 140.137C31.8309 146.174 28.2062 151.396 25.0126 156.641C21.819 161.886 18.8908 167.742 19.4215 173.864C20.0469 181.133 25.8181 187.401 32.7786 189.6C39.7391 191.799 47.5335 190.282 53.7927 186.534C58.4062 183.706 62.2482 179.78 64.9764 175.106C67.7046 170.433 69.2342 165.157 69.4289 159.749C69.5379 155.357 68.7513 150.997 67.9648 146.671C66.9224 141.005 65.9037 135.063 64.8755 129.391Z" fill="#49467A"/>
<path d="M69.6089 158.46L81.5587 171.05L91.9829 164.653L87.6521 160.9L69.6089 158.46Z" fill="black"/>
<path d="M71.0159 146.472C69.8228 145.436 68.3498 144.776 66.7824 144.576C65.2149 144.375 63.6232 144.643 62.2075 145.345L63.9085 152.452L69.5944 158.46L87.6377 160.9L71.0159 146.472Z" fill="#E38673"/>
<path d="M72.6983 216.101C70.1996 209.602 69.9411 202.455 71.9639 195.793L77.3702 177.963L78.6401 176.347C79.9016 174.746 80.5318 172.738 80.4113 170.703C80.2908 168.668 79.4279 166.748 77.9862 165.307L71.6843 159.01L62.2079 145.345L59.0854 147.24L59.4834 147.97C59.8762 148.694 60.0611 149.513 60.0176 150.336C59.9741 151.158 59.704 151.953 59.237 152.632L54.6456 159.294C51.1309 164.412 46.2177 168.411 40.4925 170.813L39.5448 171.201C37.0377 172.252 34.2395 172.382 31.6462 171.566L31.1297 171.405C31.5995 174.687 32.2544 177.939 33.0913 181.147L34.3422 185.918C36.8747 195.53 35.7062 205.742 31.0681 214.533C26.5715 223.042 21.8712 234.959 22.7241 246.506C30.4616 251.406 65.3683 253.974 82.2696 240.981L72.6983 216.101Z" fill="#D13C34"/>
<path d="M33.333 161.133L39.9192 171.05L40.4925 170.813C46.2147 168.417 51.1275 164.427 54.6456 159.318L55.3564 158.29L45.7851 152.452L33.333 161.133Z" fill="black"/>
<path d="M59.4835 147.993L59.0855 147.264L57.1902 148.425L46.6429 150.32L40.4168 148.425L30.4002 154.191V154.452C30.1094 160.114 30.368 165.792 31.1725 171.405L31.689 171.566C34.2823 172.382 37.0805 172.252 39.5876 171.201L39.9477 171.05L33.3616 161.133L45.8137 152.452L55.3849 158.29L59.2656 152.656C59.7281 151.974 59.9933 151.178 60.0317 150.355C60.0702 149.533 59.8805 148.715 59.4835 147.993Z" fill="#E38673"/>
<path d="M49.59 145.582C51.8809 146.614 54.4752 146.753 56.8632 145.97L56.0908 140.284L45.7852 138.299V142.478C46.7719 143.817 48.0806 144.884 49.59 145.582Z" fill="black"/>
<path d="M49.5899 145.582C48.083 144.875 46.7791 143.8 45.7993 142.454V152.452H57.7634L56.8773 145.97C54.4851 146.757 51.885 146.618 49.5899 145.582Z" fill="#E38673"/>
<path d="M52.7741 144.013C51.0472 144.014 49.3372 143.674 47.7416 143.014C46.1461 142.353 44.6963 141.385 43.4752 140.164C42.2542 138.942 41.2857 137.493 40.6251 135.897C39.9645 134.302 39.6249 132.592 39.6255 130.865V120.095C39.6249 118.368 39.9645 116.658 40.6251 115.062C41.2857 113.467 42.2542 112.017 43.4752 110.796C44.6963 109.575 46.1461 108.606 47.7416 107.946C49.3372 107.285 51.0472 106.945 52.7741 106.946C54.502 106.944 56.2133 107.283 57.8102 107.943C59.4071 108.603 60.8583 109.571 62.0808 110.792C63.3033 112.013 64.2731 113.463 64.9347 115.06C65.5964 116.656 65.937 118.367 65.937 120.095V130.865C65.937 132.593 65.5964 134.304 64.9347 135.9C64.2731 137.496 63.3033 138.946 62.0808 140.167C60.8583 141.388 59.4071 142.357 57.8102 143.017C56.2133 143.676 54.502 144.015 52.7741 144.013Z" fill="#E38673"/>
<path d="M41.7716 134.982C42.7213 134.501 43.519 133.765 44.076 132.858C44.6331 131.95 44.9277 130.906 44.9273 129.841V128.183C50.0938 125.697 54.6041 122.032 58.0949 117.484L61.0373 113.646C62.7579 114.555 64.0527 116.103 64.6431 117.958L65.9367 122.033V106.254L38.7676 106.946V135.423L41.7716 134.982Z" fill="#49467A"/>
<path d="M41.6588 135.854C43.2631 134.25 43.2631 131.649 41.6588 130.044C40.0546 128.44 37.4535 128.44 35.8492 130.044C34.2449 131.649 34.2449 134.25 35.8492 135.854C37.4535 137.458 40.0545 137.458 41.6588 135.854Z" fill="#E38673"/>
<path d="M53.2005 121.9C52.5377 122.042 51.9111 122.318 51.3594 122.712C50.8076 123.105 50.3425 123.608 49.9927 124.188L57.0716 122.663C56.5125 122.278 55.8806 122.012 55.2149 121.881C54.5492 121.75 53.8636 121.756 53.2005 121.9Z" fill="#49467A"/>
<path d="M62.8617 121.137C63.4377 121.233 63.9887 121.443 64.4826 121.755C64.9764 122.066 65.4032 122.473 65.7379 122.952L60.251 122.341C60.533 121.919 60.9261 121.583 61.3868 121.371C61.8475 121.159 62.3579 121.078 62.8617 121.137Z" fill="#49467A"/>
<path d="M55.6548 126.572C55.6027 126.74 55.5037 126.89 55.3694 127.004C55.2351 127.117 55.071 127.191 54.8966 127.214C54.7221 127.238 54.5445 127.211 54.3847 127.138C54.2249 127.064 54.0894 126.946 53.9944 126.798C53.8993 126.649 53.8486 126.477 53.8481 126.301C53.8477 126.125 53.8976 125.952 53.9919 125.804C54.0862 125.655 54.221 125.537 54.3804 125.462C54.5399 125.387 54.7173 125.36 54.8919 125.383C55.1488 125.443 55.3722 125.6 55.5146 125.822C55.657 126.045 55.7073 126.313 55.6548 126.572Z" fill="black"/>
<path d="M64.0417 126.174C63.9898 126.342 63.891 126.492 63.7569 126.605C63.6229 126.719 63.4591 126.793 63.2849 126.817C63.1106 126.841 62.9332 126.814 62.7733 126.741C62.6135 126.668 62.4779 126.55 62.3825 126.402C62.2871 126.255 62.2359 126.083 62.2349 125.907C62.2338 125.731 62.283 125.558 62.3767 125.409C62.4703 125.261 62.6045 125.141 62.7634 125.066C62.9224 124.991 63.0996 124.963 63.2741 124.985C63.5318 125.044 63.7563 125.201 63.8997 125.423C64.0431 125.645 64.094 125.915 64.0417 126.174Z" fill="black"/>
<path d="M62.2313 130.632L58.6113 131.234C58.7572 131.648 59.0344 132.002 59.4006 132.243C59.7667 132.485 60.2018 132.6 60.6393 132.57C61.4827 132.461 62.1887 131.481 62.2313 130.632Z" fill="#D67363"/>
<path d="M63.3165 133.513L54.0391 135.058C54.7072 137.133 57.0763 138.763 59.2511 138.484C61.426 138.204 63.2028 135.693 63.3165 133.513Z" fill="white"/>
<path d="M56.0388 109.216C54.4057 111.6 52.5699 113.838 50.5519 115.906C48.4864 117.924 46.2494 119.758 43.8662 121.388C45.2428 121.088 46.5668 120.583 47.7942 119.891C50.6378 118.321 52.9837 115.985 54.5652 113.148C55.247 111.917 55.7435 110.592 56.0388 109.216Z" fill="#373763"/>
<path d="M54.5178 107.5C50.3963 109.037 46.5751 111.282 43.2266 114.134C47.3462 112.594 51.1668 110.349 54.5178 107.5Z" fill="#373763"/>
<path d="M67.4815 218.731C65.1123 217.541 62.421 216.115 59.6965 214.4C54.0181 210.861 48.8728 206.531 44.4157 201.54C42.2645 199.148 40.4024 196.75 38.8198 194.608C39.9993 197.388 41.5039 200.019 43.3022 202.445C47.416 208.026 52.794 212.551 58.9953 215.651C61.6921 217.01 64.5408 218.044 67.4815 218.731Z" fill="#B02418"/>
<path d="M66.1549 205.397C62.1949 206.735 57.9913 207.196 53.8354 206.748C55.8704 207.388 58.0163 207.599 60.1371 207.367C62.2578 207.134 64.3071 206.464 66.1549 205.397Z" fill="#B02418"/>
<path d="M66.254 179.256C64.553 179.953 62.6388 180.848 60.5681 181.625C58.4554 182.463 56.2071 182.906 53.9346 182.933C51.6923 182.883 49.4969 182.281 47.5427 181.18C45.7722 180.19 44.2226 178.848 42.9893 177.238C43.8694 179.17 45.2624 180.823 47.0168 182.019C49.0479 183.427 51.4496 184.203 53.9204 184.25C56.357 184.229 58.7555 183.643 60.9282 182.54C62.7949 181.617 64.5729 180.524 66.2398 179.275L66.254 179.256Z" fill="#B02418"/>
<path d="M138.712 115.764L137.826 116.816L145.407 126.847L148.103 123.231C147.343 121.6 146.278 120.128 144.966 118.896C143.228 117.27 141.055 116.182 138.712 115.764Z" fill="black"/>
<path d="M159.025 99.8813L151.604 65.1926C152.367 63.9698 152.657 62.5106 152.419 61.0893L151.946 58.0852V52.5367C151.955 51.9183 151.84 51.3042 151.608 50.7309C151.376 50.1577 151.031 49.6368 150.594 49.1992C150.156 48.7615 149.636 48.416 149.063 48.1831C148.49 47.9502 147.876 47.8346 147.258 47.8432C146.639 47.8517 146.029 47.9843 145.462 48.2329C144.896 48.4816 144.385 48.8414 143.96 49.2909C143.536 49.7405 143.205 50.2707 142.989 50.8502C142.773 51.4297 142.675 52.0467 142.701 52.6647L142.862 58.578L139.958 57.3792C139.201 57.0658 138.362 57.0136 137.573 57.2307C136.783 57.4478 136.088 57.9219 135.599 58.578L144.483 64.6951L147.8 105.051L138.735 115.783C141.079 116.201 143.251 117.288 144.99 118.915C146.302 120.147 147.367 121.619 148.127 123.25L156.328 112.239C157.633 110.49 158.549 108.483 159.014 106.352C159.479 104.22 159.483 102.014 159.025 99.8813Z" fill="#F99B8C"/>
<path d="M142.862 58.5591L150.998 58.815L150.884 58.7486C149.683 58.0123 148.308 57.6069 146.899 57.5736C145.49 57.5404 144.097 57.8803 142.862 58.5591Z" fill="#E38673"/>
<path d="M86.2166 213.737L83.0562 241.029C103.904 251.406 137.821 246.032 144.004 241.929L140.133 212.983L86.2166 213.737Z" fill="#EFBB5A"/>
<path d="M80.9663 121.156L86.5337 111.471H96.6025L93.1673 124.71L80.9663 121.156Z" fill="#5C8495"/>
<path d="M101 65.9033L110.476 59.5066C109.799 58.899 108.956 58.5069 108.054 58.3803C107.153 58.2537 106.234 58.3984 105.416 58.7959L102.644 60.1179V53.0105C102.644 52.3386 102.505 51.674 102.236 51.0584C101.966 50.4429 101.573 49.8898 101.079 49.434C100.585 48.9782 100.003 48.6296 99.3675 48.41C98.7325 48.1905 98.0589 48.1049 97.3892 48.1585C96.1442 48.2577 94.9852 48.8322 94.1525 49.7629C93.3197 50.6936 92.877 51.9091 92.9163 53.1574L93.2432 63.8469L79.7487 96.8014C78.318 100.298 78.2136 104.197 79.4549 107.766L83.3498 118.967C85.7728 119.032 88.183 118.594 90.4282 117.681C92.6734 116.767 94.7048 115.398 96.3941 113.66L90.007 98.5545L101 65.9033Z" fill="#F99B8C"/>
<path d="M90.7792 117.536C88.4339 118.539 85.8996 119.024 83.3496 118.957L84.8753 123.345L96.9578 114.982L96.394 113.655C94.7924 115.302 92.8852 116.62 90.7792 117.536Z" fill="black"/>
<path d="M102.644 60.1179L94.5273 59.8005C95.7756 59.1819 97.1571 58.8804 98.5495 58.9226C99.942 58.9647 101.303 59.3492 102.511 60.0421L102.644 60.1179Z" fill="#E38673"/>
<path d="M135.84 139.915L147.184 126.126L147.131 125.975C145.642 121.184 142.384 117.14 138.02 114.665L124.459 128.202L118.01 132.869L111.424 134.911L106.842 128.685L96.6171 111.471L94.2479 114.598C92.9677 116.307 91.3564 117.74 89.51 118.812C87.6637 119.884 85.6202 120.574 83.5016 120.839L80.9619 121.156L87.7329 143.658L82.4497 217.229L86.2403 218.764C100.872 224.697 117.097 225.424 132.201 220.825L144.023 217.229L135.859 169.984L135.84 139.915Z" fill="#7DADC3"/>
<path d="M107.686 136.404C107.71 135.468 107.678 134.531 107.591 133.599C105.591 134.65 103.63 135.811 101.678 136.915C97.2141 139.488 92.4711 141.966 87.3965 142.559L87.7187 143.625L87.477 146.965C93.016 146.018 98.2423 143.577 103.786 142.563C104.791 142.379 105.805 142.246 106.819 142.151C106.819 142.113 106.842 142.075 106.852 142.037C107.356 140.2 107.636 138.308 107.686 136.404Z" fill="#5C8495"/>
<path d="M107.984 142.09C108.728 142.037 109.477 142.009 110.226 141.995C110.226 141.853 110.226 141.71 110.226 141.564C110.101 139.199 109.763 136.85 109.216 134.546C110.267 136.734 110.857 139.115 110.951 141.54C110.951 141.692 110.951 141.838 110.951 141.99C113.926 141.99 116.916 142.189 119.882 142.407C124.44 142.739 129.027 143.08 133.49 144.013C131.728 142.45 129.657 140.625 127.492 138.901C124.943 136.877 122.322 134.982 120.204 133.442C119.37 133.262 118.535 133.104 117.698 132.968L111.424 134.911L109.695 132.542C109.136 132.812 108.581 133.096 108.022 133.381C108.287 134.362 108.457 135.366 108.529 136.38C108.655 138.3 108.471 140.228 107.984 142.09Z" fill="#5C8495"/>
<path d="M133.964 144.118C134.594 144.255 135.219 144.402 135.859 144.568V139.915L135.968 139.782C134.479 138.866 132.943 138.027 131.367 137.271C132.262 138.28 133.082 139.275 133.703 140.114C132.468 139.042 131.291 137.905 130.178 136.707C127.116 135.334 123.926 134.269 120.654 133.528C123.314 134.753 125.813 136.303 128.093 138.143C130.276 139.898 132.247 141.904 133.964 144.118Z" fill="#5C8495"/>
<path d="M143.644 130.424C140.47 126.411 136.506 123.092 131.998 120.673L125.421 127.24C130.661 128.915 135.44 131.786 139.38 135.627L143.644 130.424Z" fill="#5C8495"/>
<path d="M95.968 132.784C99.3443 130.51 102.083 127.411 103.924 123.781L99.3037 116.029C98.6016 117.421 97.7987 118.759 96.9015 120.033C95.0653 122.715 92.5858 124.893 89.6898 126.368C87.5919 127.394 85.2642 127.859 82.9331 127.718L85.6007 136.617C89.3088 136.168 92.8597 134.855 95.968 132.784Z" fill="#5C8495"/>
<path d="M133.694 196.262C117.171 198.59 100.356 197.744 84.1507 193.77L83.2314 206.615C95.7327 210.517 108.892 211.863 121.924 210.571C122.398 210.387 122.872 210.197 123.345 209.998C127.186 208.338 130.912 206.426 134.499 204.274C132.034 206.596 129.242 208.545 126.212 210.06C131.627 209.295 136.967 208.072 142.175 206.407L140.195 194.94C138.064 195.545 135.891 195.987 133.694 196.262Z" fill="#5C8495"/>
<path d="M102.568 183.526C98.872 184.38 95.0756 184.719 91.2864 184.535C94.9456 183.869 98.555 182.954 102.09 181.796C106.051 180.48 109.888 178.815 113.556 176.821C114.94 176.063 116.3 175.253 117.622 174.404C106.933 174.647 96.24 174.294 85.5911 173.348L84.8472 183.739C94.3237 186.217 104.236 186.8 114.025 186.34C122.132 185.956 130.178 184.881 138.19 183.639L136.423 173.362C131.505 173.798 126.578 174.106 121.644 174.286C119.47 176.031 117.149 177.584 114.708 178.929C110.89 181.009 106.806 182.556 102.568 183.526Z" fill="#5C8495"/>
<path d="M113.693 216.376C109.34 216.512 104.982 216.38 100.644 215.983C96.465 215.608 92.5512 215.002 89.1396 214.405C92.7481 215.963 96.5195 217.112 100.384 217.831C109.231 219.514 118.342 219.215 127.06 216.954C130.867 215.972 134.554 214.572 138.053 212.78C134.684 213.604 130.822 214.471 126.681 215.149C122.381 215.822 118.043 216.232 113.693 216.376Z" fill="#6699AA"/>
<path d="M111.424 214.002C115.685 213.802 119.875 212.839 123.795 211.159C124.606 210.818 125.402 210.448 126.164 210.055C124.743 210.259 123.322 210.429 121.9 210.567C118.475 211.907 114.977 213.053 111.424 214.002Z" fill="#6699AA"/>
<path d="M123.303 209.998C122.829 210.197 122.355 210.387 121.881 210.571C123.303 210.434 124.724 210.263 126.146 210.06C129.175 208.545 131.967 206.596 134.433 204.274C130.853 206.425 127.135 208.337 123.303 209.998Z" fill="#466E7C"/>
<path d="M123.928 169.846C121.91 171.479 119.805 173.001 117.622 174.404C118.964 174.373 120.305 174.332 121.644 174.281C122.858 173.309 124.02 172.275 125.127 171.182C127.367 168.98 129.352 166.532 131.045 163.886L130.548 163.786C128.457 165.929 126.247 167.953 123.928 169.846Z" fill="#6699AA"/>
<path d="M113.556 176.821C109.888 178.815 106.051 180.48 102.089 181.796C98.5547 182.953 94.9453 183.869 91.2861 184.535C95.0752 184.719 98.8717 184.379 102.568 183.526C106.806 182.554 110.89 181.006 114.707 178.925C117.149 177.58 119.47 176.026 121.644 174.281C120.305 174.329 118.964 174.37 117.621 174.404C116.299 175.257 114.939 176.063 113.556 176.821Z" fill="#466E7C"/>
<path d="M96.29 163.288C96.7639 163.559 97.2377 163.829 97.7115 164.089C102.884 166.848 108.625 168.373 114.485 168.543C117.039 168.628 119.594 168.415 122.099 167.908C119.849 167.828 117.28 167.681 114.58 167.335C108.958 166.642 103.458 165.181 98.2327 162.995L98.1759 162.971L97.8205 163.023L96.29 163.288Z" fill="#6699AA"/>
<path d="M104.663 147.349C103.997 148.516 103.237 149.625 102.388 150.666L102.815 150.614C103.776 149.773 104.632 148.818 105.364 147.771C106.514 146.118 107.377 144.284 107.918 142.345C107.941 142.255 107.96 142.165 107.984 142.075C107.596 142.099 107.207 142.128 106.818 142.165C106.308 143.973 105.585 145.713 104.663 147.349Z" fill="#6699AA"/>
<path d="M107.591 133.613L108.008 133.4C107.822 132.69 107.579 131.996 107.283 131.324C107.411 132.04 107.52 132.807 107.591 133.613Z" fill="#6699AA"/>
<path d="M107.685 136.404C107.64 138.326 107.36 140.235 106.852 142.09C106.852 142.127 106.852 142.165 106.818 142.203C107.207 142.165 107.595 142.137 107.984 142.113C108.463 140.258 108.642 138.339 108.515 136.427C108.442 135.414 108.272 134.409 108.008 133.428L107.591 133.641C107.676 134.559 107.708 135.482 107.685 136.404Z" fill="#466E7C"/>
<path d="M110.225 142C110.273 144.218 110.137 146.437 109.817 148.633C110.615 146.511 111 144.256 110.95 141.99L110.225 142Z" fill="#6699AA"/>
<path d="M109.207 134.551C109.754 136.855 110.091 139.204 110.216 141.568C110.216 141.715 110.216 141.857 110.216 141.999H110.927C110.927 141.848 110.927 141.701 110.927 141.549C110.838 139.123 110.253 136.742 109.207 134.551Z" fill="#466E7C"/>
<path d="M119.896 133.22L120.204 133.442L120.635 133.542L119.896 133.22Z" fill="#6699AA"/>
<path d="M134.67 145.07C134.452 144.762 134.196 144.44 133.964 144.122L133.49 144.018C133.888 144.383 134.291 144.738 134.67 145.07Z" fill="#6699AA"/>
<path d="M133.476 144.013L133.95 144.118C132.226 141.907 130.249 139.907 128.06 138.157C125.78 136.317 123.282 134.767 120.621 133.542L120.19 133.442C122.284 134.963 124.928 136.859 127.463 138.901C129.643 140.625 131.713 142.45 133.476 144.013Z" fill="#466E7C"/>
<path d="M126.709 132.651C127.781 134.072 128.933 135.431 130.159 136.721C130.557 136.901 130.955 137.081 131.348 137.271C129.906 135.63 128.356 134.086 126.709 132.651Z" fill="#6699AA"/>
<path d="M133.694 140.128C133.073 139.275 132.272 138.28 131.358 137.285C130.964 137.095 130.566 136.915 130.168 136.735C131.282 137.928 132.459 139.061 133.694 140.128Z" fill="#466E7C"/>
<path d="M101.701 151.509C101.929 151.249 102.175 150.974 102.388 150.685C97.1317 151.377 91.9593 152.603 86.9509 154.343L86.207 164.767C89.5759 164.587 92.9401 163.886 96.29 163.288C94.5593 162.265 92.9271 161.083 91.4144 159.759C93.395 160.801 95.6788 161.933 98.1711 162.971C108.922 161.252 119.899 161.535 130.548 163.805C131.069 163.271 131.574 162.745 132.064 162.227C131.751 162.777 131.405 163.341 131.045 163.904C132.656 164.261 134.254 164.658 135.84 165.094V153.395C125.148 150.165 113.895 149.223 102.815 150.633C102.44 150.955 102.066 151.253 101.701 151.509Z" fill="#5C8495"/>
<path d="M130.547 163.805L131.045 163.904C131.405 163.341 131.751 162.777 132.064 162.227C131.571 162.745 131.065 163.271 130.547 163.805Z" fill="#466E7C"/>
<path d="M96.2902 163.288L97.8159 163.023L98.1713 162.971C95.6742 161.933 93.3951 160.801 91.4146 159.758C92.9273 161.083 94.5595 162.265 96.2902 163.288Z" fill="#466E7C"/>
<path d="M101.701 151.509C102.066 151.253 102.44 150.955 102.815 150.633L102.388 150.685C102.156 150.974 101.948 151.249 101.701 151.509Z" fill="#5C8495"/>
<path d="M111.202 128.472C109.632 127.179 108.42 125.505 107.681 123.61L106.828 128.704L111.424 134.911L118.584 139.915L118.025 132.869L118.224 131.102C115.662 130.998 113.201 130.077 111.202 128.472Z" fill="#F99B8C"/>
<path d="M111.202 128.472C113.197 130.074 115.653 130.995 118.21 131.102L119.006 124.084L108.108 121.137L107.681 123.61C108.42 125.505 109.632 127.179 111.202 128.472Z" fill="black"/>
<path d="M130.244 120C132.6 120 134.509 118.091 134.509 115.735C134.509 113.38 132.6 111.471 130.244 111.471C127.889 111.471 125.98 113.38 125.98 115.735C125.98 118.091 127.889 120 130.244 120Z" fill="#E38673"/>
<path d="M130.244 117.972C131.479 117.972 132.481 116.971 132.481 115.736C132.481 114.5 131.479 113.499 130.244 113.499C129.009 113.499 128.008 114.5 128.008 115.736C128.008 116.971 129.009 117.972 130.244 117.972Z" fill="#D67363"/>
<path d="M121.436 85.5197C122.968 85.2932 124.533 85.5274 125.932 86.1925L132.409 89.2676C133.722 89.8897 134.841 90.8582 135.644 92.0689C136.447 93.2796 136.905 94.6865 136.968 96.1381L137.28 103.444C137.339 104.796 137.097 106.143 136.572 107.389C136.047 108.636 135.251 109.75 134.243 110.651L130.377 114.096L121.436 85.5197Z" fill="#D13C34"/>
<path d="M121.374 93.7595C119.795 93.5001 118.179 93.5544 116.621 93.9193C115.062 94.2842 113.591 94.9526 112.291 95.8863C110.99 96.82 109.887 98.0007 109.043 99.361C108.199 100.721 107.632 102.234 107.373 103.814L105.691 114.053C105.192 117.233 105.971 120.481 107.858 123.088C109.745 125.695 112.586 127.451 115.761 127.972C118.937 128.493 122.19 127.737 124.811 125.869C127.432 124.001 129.208 121.172 129.751 118L130.476 113.556L131.424 107.761C131.683 106.182 131.629 104.567 131.265 103.009C130.9 101.45 130.232 99.979 129.299 98.6789C128.366 97.3787 127.186 96.2751 125.826 95.431C124.466 94.587 122.953 94.019 121.374 93.7595Z" fill="#F99B8C"/>
<path d="M129.178 98.5546L119.285 95.2994L125.98 94.3517L129.178 98.5546Z" fill="#B02418"/>
<path d="M106.511 114.665C107.115 114.484 107.663 114.153 108.103 113.702C108.543 113.251 108.861 112.695 109.027 112.087L109.827 109.14C111.232 108.97 112.562 108.419 113.675 107.545C114.787 106.671 115.637 105.508 116.134 104.184L118.314 98.3509C118.579 97.6407 119.004 97.0006 119.555 96.4799C120.106 95.9592 120.769 95.5716 121.493 95.3468C122.306 95.0941 123.169 95.0445 124.005 95.2023C124.842 95.36 125.627 95.7204 126.293 96.2518L129.178 98.5546L129.306 93.4041C129.338 92.1281 128.993 90.8711 128.312 89.7911C127.632 88.7111 126.647 87.8564 125.483 87.3345L121.436 85.5197C119.438 84.6259 117.237 84.2807 115.061 84.5197C112.885 84.7587 110.812 85.5733 109.055 86.8796L105.97 89.1776C104.43 90.3226 103.178 91.8117 102.315 93.5261C101.452 95.2405 101.002 97.1328 101 99.0521V112.845L106.511 114.665Z" fill="#D13C34"/>
<path d="M103.241 117.11C105.596 117.11 107.505 115.2 107.505 112.845C107.505 110.49 105.596 108.581 103.241 108.581C100.886 108.581 98.9766 110.49 98.9766 112.845C98.9766 115.2 100.886 117.11 103.241 117.11Z" fill="#F99B8C"/>
<path d="M103.241 115.082C104.476 115.082 105.477 114.08 105.477 112.845C105.477 111.61 104.476 110.609 103.241 110.609C102.006 110.609 101.004 111.61 101.004 112.845C101.004 114.08 102.006 115.082 103.241 115.082Z" fill="#E38673"/>
<path d="M119.157 105.089C118.481 105.146 117.823 105.34 117.225 105.659C116.626 105.979 116.099 106.416 115.674 106.946L122.895 106.34C122.39 105.888 121.798 105.544 121.155 105.329C120.512 105.114 119.832 105.032 119.157 105.089Z" fill="#D13C34"/>
<path d="M129.093 106.221C129.638 106.433 130.136 106.752 130.557 107.158C130.977 107.565 131.313 108.052 131.542 108.59L126.292 106.884C126.652 106.525 127.104 106.273 127.599 106.156C128.093 106.039 128.61 106.061 129.093 106.221Z" fill="#D13C34"/>
<path d="M126.292 115.953L122.625 116.081C122.716 116.511 122.945 116.899 123.277 117.186C123.609 117.474 124.025 117.645 124.463 117.673C125.316 117.673 126.141 116.792 126.292 115.953Z" fill="#E38673"/>
<path d="M126.998 118.957L117.598 119.284C117.991 121.426 120.133 123.355 122.336 123.355C124.539 123.355 126.586 121.099 126.998 118.957Z" fill="white"/>
<path d="M118.01 110.192C118.202 109.878 118.462 109.611 118.772 109.413C119.082 109.215 119.433 109.089 119.798 109.047C120.163 109.004 120.534 109.046 120.881 109.168C121.228 109.29 121.542 109.489 121.801 109.751C121.643 109.399 121.377 109.105 121.043 108.912C120.65 108.68 120.193 108.58 119.74 108.628C119.289 108.684 118.868 108.886 118.541 109.201C118.268 109.47 118.083 109.816 118.01 110.192Z" fill="black"/>
<path d="M126.951 110.514C127.175 110.339 127.434 110.215 127.71 110.149C127.987 110.084 128.274 110.079 128.553 110.135C128.826 110.211 129.08 110.345 129.296 110.53C129.512 110.714 129.685 110.943 129.804 111.201C129.772 110.881 129.641 110.58 129.43 110.337C129.219 110.095 128.938 109.924 128.626 109.849C128.314 109.774 127.986 109.797 127.687 109.916C127.389 110.035 127.135 110.244 126.961 110.514H126.951Z" fill="black"/>
<path d="M103.8 99.7059C105.105 99.6162 106.386 99.3104 107.591 98.8009C110.372 97.6515 112.725 95.6641 114.324 93.115C115.02 92.0104 115.529 90.7985 115.831 89.5282C112.779 93.9181 108.634 97.4347 103.805 99.7296L103.8 99.7059Z" fill="#B02418"/>
<path d="M106.738 94.8397C110.166 93.3704 112.969 90.7421 114.655 87.4149C113.504 88.4336 112.12 89.784 110.699 91.1297C109.277 92.4754 107.832 93.7594 106.738 94.8397Z" fill="#B02418"/>
<path d="M132.614 95.3942C133.173 96.7351 133.931 98.3935 134.594 100.095C135.258 101.796 135.826 103.525 136.324 104.89C136.367 103.143 136.061 101.405 135.424 99.7773C134.787 98.15 133.832 96.6663 132.614 95.4131V95.3942Z" fill="#B02418"/>
<path d="M155.39 213.926L153.798 216.115C152.977 217.25 152.436 218.564 152.22 219.948L148.52 243.545C172.921 255.983 203.483 242.834 203.483 242.834L199.783 219.252C199.494 217.411 198.632 215.708 197.319 214.386L196.845 213.912L155.39 213.926Z" fill="#49467A"/>
<path d="M157.129 213.926L152.229 230.794L154.518 226.553C156.246 223.346 157.443 219.88 158.062 216.29L158.47 213.921L157.129 213.926Z" fill="#32305F"/>
<path d="M192.921 213.926L193.229 215.31C194.438 220.71 196.38 225.92 199.001 230.794L194.182 213.926H192.921Z" fill="#32305F"/>
<path d="M175.215 213.926L174.741 235.689L176.409 233.841C178.543 231.473 179.724 228.4 179.726 225.213V213.926L178.541 226.43C178.329 228.702 177.471 230.866 176.068 232.666L176.002 232.751V213.926H175.215Z" fill="#32305F"/>
<path d="M188.435 136.878L192.348 150.903L198.897 143.648C195.934 140.669 192.366 138.36 188.435 136.878Z" fill="#E3BBAC"/>
<path d="M215.324 117.925L208.558 82.563L198.253 83.7476L203.346 119.284L187.293 132.869L188.416 136.887C192.347 138.37 195.915 140.679 198.878 143.658L212.245 128.856C213.565 127.394 214.53 125.647 215.064 123.751C215.598 121.855 215.687 119.861 215.324 117.925Z" fill="#F7E0D6"/>
<path d="M199.456 92.0158L209.051 90.8549L205.44 90.1442L204.255 84.0461V90.1442L199.266 90.6701L199.456 92.0158Z" fill="#E3BBAC"/>
<path d="M203.118 87.1686C203.118 87.4113 203.046 87.6486 202.911 87.8504C202.776 88.0522 202.585 88.2095 202.36 88.3024C202.136 88.3953 201.889 88.4196 201.651 88.3722C201.413 88.3249 201.195 88.208 201.023 88.0364C200.851 87.8648 200.735 87.6461 200.687 87.408C200.64 87.17 200.664 86.9232 200.757 86.699C200.85 86.4747 201.007 86.2831 201.209 86.1482C201.411 86.0134 201.648 85.9414 201.891 85.9414C202.216 85.9427 202.527 86.0724 202.757 86.3022C202.987 86.5321 203.117 86.8435 203.118 87.1686Z" fill="#E3BBAC"/>
<path d="M199.475 83.6102L198.607 79.1278L187.312 73.0866C187.972 72.3779 188.818 71.8689 189.754 71.6176C190.69 71.3663 191.677 71.3827 192.604 71.6651L194.732 72.3142C194.994 72.3929 195.269 72.4184 195.541 72.3893C195.814 72.3601 196.077 72.2769 196.317 72.1445C196.557 72.0121 196.767 71.8332 196.937 71.6182C197.107 71.4033 197.231 71.1566 197.304 70.8927L200.436 59.8763C200.567 59.4176 200.788 58.9893 201.084 58.6158C201.381 58.2424 201.749 57.9312 202.166 57.7001C202.583 57.469 203.042 57.3225 203.516 57.2691C203.99 57.2157 204.47 57.2563 204.928 57.3887L206.056 57.7157C207.431 58.1177 208.638 58.9539 209.498 60.0992C210.358 61.2445 210.825 62.6374 210.827 64.0697V66.2777C210.827 68.2701 210.449 70.2443 209.714 72.0963L207.61 77.4315L207.928 82.6436L199.475 83.6102Z" fill="#E38673"/>
<path d="M197.305 70.9022L206.445 73.8589L206.033 73.3851C205.009 72.1248 203.621 71.2117 202.059 70.7706C200.497 70.3296 198.836 70.3822 197.305 70.9212V70.9022Z" fill="#D67363"/>
<path d="M163.507 137.351L148.52 143.686L154.068 170.855L154.452 196.342C154.51 200.259 153.735 204.144 152.177 207.738L151.884 208.416C151.471 209.368 151.391 210.431 151.657 211.434C151.923 212.437 152.518 213.322 153.348 213.945L153.845 214.319C154.506 214.816 155.289 215.125 156.11 215.215L171.566 216.916C177.592 217.578 183.687 217.174 189.572 215.722L196.869 213.926C197.998 213.646 199.034 213.074 199.873 212.268C200.686 211.487 201.287 210.511 201.619 209.433C201.95 208.356 202.002 207.211 201.768 206.108L199.46 195.276C199.089 193.537 198.831 191.775 198.688 190.003L195.765 153.627C195.345 148.541 193.759 143.621 191.131 139.247L187.312 132.869L183.208 133.504L163.507 137.351Z" fill="#F7E0D6"/>
<path d="M165.345 131.992L175.707 131.429L175.214 139.109L165.345 131.992Z" fill="#D6A596"/>
<path d="M175.215 139.109L165.345 131.992L163.507 137.351L169.667 147.832L175.215 139.109Z" fill="#E3BBAC"/>
<path d="M180.664 132.552L184.691 134.054L182.891 140.55L177.896 145.108L180.664 137.451V132.552Z" fill="#E3BBAC"/>
<path d="M184.692 134.054L187.317 143.686L182.891 140.55L184.692 134.054Z" fill="#D6A596"/>
<path d="M177.896 145.108L181.294 168.681L181.867 212.983L182.559 167.97L177.896 145.108Z" fill="#E3BBAC"/>
<path d="M157.655 161.573V165.43C157.655 171.801 156.631 178.129 154.623 184.175L154.267 185.246L154.125 175.651L157.655 161.573Z" fill="#E3BBAC"/>
<path d="M176.338 208.482L188.089 206.179L175.727 196.399L154.381 191.689L154.452 196.342C154.511 200.259 153.735 204.144 152.178 207.738L151.884 208.415C151.732 208.769 151.623 209.14 151.562 209.519L175.41 210.183L176.338 208.482Z" fill="#E3BBAC"/>
<path d="M157.939 158.64C157.704 153.146 155.363 147.954 151.4 144.141C154.446 148.535 156.662 153.449 157.939 158.64Z" fill="#E3BBAC"/>
<path d="M164.625 180.28C167.29 179.395 169.856 178.235 172.282 176.821C177.846 173.595 182.685 169.256 186.497 164.075C188.166 161.818 189.595 159.393 190.761 156.84C189.235 158.792 187.444 161 185.454 163.232C181.299 167.894 176.635 172.075 171.548 175.698C169.107 177.451 166.719 178.977 164.611 180.28H164.625Z" fill="#E3BBAC"/>
<path d="M185.507 153.461C183.768 155.883 181.616 159.086 179.399 162.246C177.181 165.406 174.912 168.524 173.239 170.983C178.498 166.05 182.678 160.081 185.516 153.452L185.507 153.461Z" fill="#E3BBAC"/>
<path d="M198.57 185.264V176.319H181.868V185.264C181.868 186.945 182.376 188.585 183.324 189.972C184.273 191.358 185.618 192.426 187.184 193.035C187.923 193.319 188.559 193.819 189.008 194.47C189.458 195.121 189.701 195.892 189.705 196.684V208.254C189.707 209.074 189.482 209.878 189.055 210.578C188.627 211.277 188.014 211.844 187.283 212.216L184.294 213.746H196.139L193.149 212.216C192.421 211.844 191.81 211.278 191.382 210.581C190.955 209.883 190.729 209.082 190.728 208.264V196.684C190.733 195.892 190.977 195.12 191.427 194.469C191.878 193.818 192.514 193.318 193.254 193.035C194.819 192.426 196.164 191.358 197.113 189.971C198.061 188.585 198.569 186.944 198.57 185.264Z" fill="#B3DAE8"/>
<path d="M189.903 186.155C188.543 185.928 187.221 185.525 185.857 185.336C185.008 185.203 184.143 185.203 183.293 185.336C183.316 187.126 184.032 188.838 185.291 190.112C186.549 191.386 188.252 192.123 190.042 192.167C191.833 192.212 193.57 191.562 194.891 190.352C196.211 189.143 197.012 187.469 197.124 185.681C194.786 186.394 192.315 186.556 189.903 186.155Z" fill="#D13C34"/>
<path d="M176.058 197.224L177.115 194.405C177.424 193.586 177.891 192.835 178.489 192.196L180.162 190.42C180.93 189.604 181.478 188.606 181.754 187.52L182.517 184.516C183.132 184.649 183.683 184.99 184.078 185.48C184.473 185.971 184.688 186.582 184.687 187.212V192.58C184.686 192.842 184.739 193.101 184.844 193.341C184.948 193.581 185.101 193.797 185.293 193.975C185.484 194.153 185.711 194.29 185.958 194.376C186.205 194.462 186.468 194.496 186.729 194.476L190.112 194.248C190.389 194.228 190.659 194.149 190.903 194.016L194.954 191.794C195.172 191.675 195.411 191.603 195.657 191.581C195.904 191.558 196.152 191.588 196.387 191.666C196.622 191.744 196.838 191.87 197.022 192.035C197.206 192.201 197.354 192.402 197.456 192.628C197.622 192.993 197.661 193.402 197.567 193.792C197.474 194.182 197.253 194.529 196.94 194.779L194.343 196.835L193.869 199.233C193.638 200.385 193.174 201.479 192.505 202.445L191.121 204.431C190.772 204.932 190.316 205.349 189.786 205.651C189.256 205.954 188.664 206.134 188.056 206.179L175.376 207.127L176.058 197.224Z" fill="#E38673"/>
<path d="M148.52 143.686C147.607 144.125 146.815 144.78 146.213 145.594C145.611 146.408 145.217 147.357 145.066 148.358L138.228 193.3C137.878 195.61 138.452 197.964 139.824 199.854C141.197 201.744 143.259 203.017 145.563 203.398L174.58 208.482L175.201 207.444C176.183 205.785 176.743 203.911 176.831 201.985C176.92 200.059 176.534 198.141 175.708 196.399L149.941 192.609L157.655 161.573L157.181 159.304C155.986 153.74 153.268 148.618 149.33 144.511L148.52 143.686Z" fill="#F7E0D6"/>
<path d="M149.941 192.609L142.422 191.486L142.801 191.344C143.989 190.902 145.255 190.71 146.52 190.779C147.785 190.849 149.022 191.178 150.155 191.746L149.941 192.609Z" fill="#E3BBAC"/>
<path d="M168.43 206.53C169.71 203.304 170.039 199.778 169.377 196.371L169.591 196.845C170.279 198.355 170.554 200.021 170.387 201.673C170.221 203.325 169.619 204.903 168.643 206.245L168.43 206.53Z" fill="#E3BBAC"/>
<path d="M172.249 129.296C174.134 129.977 176.19 130.023 178.105 129.429C179.004 129.156 179.862 128.765 180.659 128.268V123.781L166.681 121.492L166.771 124.705C167.19 125.274 167.638 125.821 168.112 126.344C169.243 127.636 170.659 128.646 172.249 129.296Z" fill="black"/>
<path d="M178.105 129.434C176.191 130.028 174.135 129.981 172.249 129.301C170.66 128.651 169.244 127.641 168.112 126.349C167.638 125.825 167.191 125.278 166.771 124.71L166.999 133.186L175.21 139.109L177.897 145.108L180.659 137.451V128.273C179.863 128.77 179.004 129.16 178.105 129.434Z" fill="#E38673"/>
<path d="M186.966 117.536C189.664 117.536 191.851 115.349 191.851 112.651C191.851 109.953 189.664 107.766 186.966 107.766C184.268 107.766 182.081 109.953 182.081 112.651C182.081 115.349 184.268 117.536 186.966 117.536Z" fill="#D67363"/>
<path d="M186.966 115.195C188.371 115.195 189.51 114.056 189.51 112.651C189.51 111.246 188.371 110.106 186.966 110.106C185.561 110.106 184.421 111.246 184.421 112.651C184.421 114.056 185.561 115.195 186.966 115.195Z" fill="#C96359"/>
<path d="M170.367 89.2723C167.023 89.835 164.04 91.7021 162.072 94.4634C160.104 97.2248 159.313 100.654 159.872 103.999L161.914 116.176C162.564 119.438 164.458 122.319 167.196 124.208C169.934 126.097 173.3 126.846 176.58 126.295C179.861 125.744 182.797 123.937 184.768 121.257C186.739 118.577 187.588 115.236 187.136 111.94L186.449 107.851L185.094 99.7675C184.531 96.4237 182.664 93.44 179.903 91.4721C177.141 89.5041 173.712 88.7129 170.367 89.2723Z" fill="#E38673"/>
<path d="M167.179 100.63L167.482 102.781C167.943 106.03 167.381 109.342 165.876 112.258L166.089 113.987C166.182 114.72 166.036 115.463 165.673 116.106C165.31 116.75 164.75 117.259 164.075 117.56L162.682 118.18L159.693 117.56L155.821 112.111C154.662 110.483 153.864 108.626 153.481 106.665C153.098 104.704 153.138 102.683 153.599 100.739C153.915 99.3789 154.697 98.1726 155.811 97.3302C156.924 96.4878 158.298 96.0626 159.693 96.1286L159.522 94.7688C159.385 93.6646 159.559 92.5442 160.024 91.5332C160.488 90.5222 161.225 89.6606 162.152 89.045L164.019 87.8083C165.985 86.5042 168.219 85.657 170.556 85.329C172.892 85.0011 175.273 85.2006 177.523 85.913L177.835 86.0125C182.568 87.5065 187.655 87.4417 192.349 85.8277L188.885 91.5136C186.861 94.8268 183.916 97.4794 180.41 99.1479C176.904 100.816 172.988 101.428 169.141 100.91L167.179 100.63Z" fill="#814A55"/>
<path d="M160.219 122.426C162.917 122.426 165.104 120.239 165.104 117.541C165.104 114.843 162.917 112.656 160.219 112.656C157.521 112.656 155.333 114.843 155.333 117.541C155.333 120.239 157.521 122.426 160.219 122.426Z" fill="#E38673"/>
<path d="M160.218 120.085C161.624 120.085 162.763 118.946 162.763 117.541C162.763 116.135 161.624 114.996 160.218 114.996C158.813 114.996 157.674 116.135 157.674 117.541C157.674 118.946 158.813 120.085 160.218 120.085Z" fill="#D67363"/>
<path d="M173.41 105.472C172.77 105.697 172.184 106.05 171.686 106.509C171.188 106.969 170.789 107.525 170.515 108.145L177.342 105.738C176.74 105.428 176.08 105.245 175.403 105.199C174.727 105.153 174.049 105.246 173.41 105.472Z" fill="#814A55"/>
<path d="M182.901 103.511C183.483 103.532 184.055 103.668 184.583 103.912C185.112 104.156 185.587 104.503 185.981 104.932L180.46 105.013C180.69 104.563 181.039 104.184 181.47 103.919C181.9 103.654 182.395 103.513 182.901 103.511Z" fill="#814A55"/>
<path d="M176.428 109.803C176.397 109.976 176.318 110.137 176.199 110.267C176.08 110.396 175.927 110.489 175.757 110.535C175.587 110.58 175.408 110.576 175.24 110.523C175.072 110.47 174.923 110.37 174.81 110.236C174.697 110.101 174.625 109.937 174.602 109.762C174.579 109.588 174.607 109.411 174.681 109.251C174.755 109.092 174.874 108.957 175.022 108.863C175.17 108.768 175.342 108.718 175.518 108.718C175.782 108.743 176.025 108.871 176.195 109.074C176.366 109.277 176.449 109.539 176.428 109.803Z" fill="black"/>
<path d="M184.696 108.363C184.665 108.536 184.586 108.697 184.467 108.826C184.348 108.956 184.195 109.049 184.025 109.094C183.855 109.14 183.676 109.136 183.508 109.083C183.34 109.03 183.191 108.93 183.078 108.795C182.965 108.661 182.893 108.496 182.87 108.322C182.847 108.148 182.875 107.97 182.949 107.811C183.023 107.652 183.142 107.517 183.29 107.422C183.438 107.328 183.61 107.278 183.786 107.278C184.05 107.303 184.293 107.431 184.463 107.634C184.634 107.837 184.717 108.099 184.696 108.363Z" fill="black"/>
<path d="M183.445 113.011L179.925 114.058C180.122 114.451 180.442 114.768 180.837 114.962C181.231 115.156 181.678 115.217 182.109 115.134C182.971 114.92 183.521 113.859 183.445 113.011Z" fill="#D67363"/>
<path d="M184.895 115.735L175.893 118.422C176.812 120.398 179.37 121.739 181.479 121.175C183.587 120.611 185.052 117.924 184.895 115.735Z" fill="white"/>
<path d="M164.525 96.5219C165.947 95.2568 167.724 93.6553 169.633 92.2243C171.543 90.7934 173.571 89.5283 175.182 88.5048C172.913 88.9426 170.773 89.8923 168.927 91.2815C167.08 92.6708 165.575 94.4631 164.525 96.5219Z" fill="#6B3A46"/>
<path d="M163.905 95.9485C164.241 95.0008 164.649 93.7641 165.165 92.5938C165.682 91.4235 166.298 90.291 166.776 89.3907C165.832 90.1952 165.084 91.2034 164.586 92.3394C164.089 93.4753 163.856 94.7094 163.905 95.9485Z" fill="#6B3A46"/>
<path d="M111.031 144.691V135.745H127.733V144.691C127.733 146.371 127.225 148.012 126.276 149.398C125.328 150.785 123.983 151.853 122.417 152.462C121.678 152.744 121.041 153.244 120.591 153.895C120.142 154.547 119.899 155.319 119.896 156.11V167.676C119.895 168.494 120.121 169.296 120.549 169.994C120.976 170.691 121.588 171.257 122.317 171.628L125.307 173.158H113.461L116.451 171.628C117.18 171.257 117.793 170.691 118.22 169.994C118.647 169.296 118.873 168.494 118.873 167.676V156.11C118.869 155.319 118.627 154.547 118.177 153.895C117.727 153.244 117.091 152.744 116.352 152.462C114.785 151.853 113.439 150.786 112.489 149.399C111.54 148.013 111.031 146.371 111.031 144.691Z" fill="#B3DAE8"/>
<path d="M119.697 145.591C121.057 145.364 122.384 144.956 123.748 144.767C124.598 144.636 125.462 144.636 126.312 144.767C126.306 146.57 125.598 148.299 124.337 149.588C123.076 150.877 121.362 151.622 119.56 151.667C117.757 151.711 116.009 151.051 114.686 149.826C113.363 148.601 112.57 146.908 112.476 145.108C114.813 145.826 117.285 145.991 119.697 145.591Z" fill="#D13C34"/>
<path d="M42.3828 149.581L66.9458 169.747L107.027 155.769L111.111 148.425L112.357 144.568C113.103 144.99 113.683 145.652 114.004 146.446C114.325 147.24 114.367 148.12 114.125 148.941L112.703 153.817L118.209 153.637L123.942 150.618C124.15 150.509 124.38 150.45 124.615 150.446C124.85 150.442 125.082 150.492 125.293 150.594C125.505 150.696 125.689 150.846 125.832 151.032C125.976 151.218 126.073 151.435 126.117 151.666C126.168 151.923 126.152 152.19 126.069 152.439C125.986 152.688 125.839 152.912 125.643 153.087L122.739 155.603L120.986 161.611C120.617 162.848 119.804 163.904 118.702 164.575C117.6 165.247 116.288 165.486 115.02 165.245L108.031 163.886L74.8634 180.92C72.1858 182.295 69.1757 182.891 66.176 182.639C63.1763 182.388 60.3073 181.3 57.8958 179.498L33.3327 161.133C31.8019 159.989 30.7777 158.293 30.4777 156.405C30.1778 154.518 30.6258 152.588 31.7265 151.026C32.3078 150.201 33.0531 149.505 33.9156 148.981C34.7782 148.457 35.7396 148.116 36.7397 147.981C37.7397 147.845 38.757 147.917 39.728 148.193C40.699 148.468 41.6027 148.94 42.3828 149.581Z" fill="#E38673"/>
<path d="M225.412 150.898C223.493 147.041 221.56 143.151 220.409 138.996C219.257 134.84 218.935 130.353 220.233 126.24C221.077 123.582 222.574 121.142 223.147 118.413C223.74 115.57 223.299 112.627 223.711 109.761C224.033 107.508 224.877 105.361 226.175 103.492C227.473 101.623 229.19 100.083 231.189 98.9938C233.187 97.9051 235.412 97.298 237.686 97.221C239.961 97.1439 242.222 97.5989 244.289 98.5499C246.225 97.9036 248.275 97.6729 250.305 97.873C252.336 98.073 254.301 98.6992 256.073 99.7107C257.806 100.733 259.299 102.114 260.452 103.762C261.605 105.41 262.392 107.286 262.759 109.263C264.181 117.124 258.736 124.8 259.224 132.769C259.812 142.317 268.725 150.197 268.09 159.744C267.644 166.435 262.091 172.196 255.571 173.755C249.051 175.314 241.963 173.049 236.874 168.681C231.785 164.312 228.402 156.901 225.412 150.898Z" fill="#EFBB5A"/>
<path d="M234.183 142.857L229.08 140.014L213.628 159.621C212.009 161.674 211.155 164.227 211.215 166.842C211.274 169.456 212.244 171.968 213.955 173.945C215.941 176.242 217.233 179.057 217.679 182.061L218.949 190.59C220.314 199.769 219.38 209.144 216.23 217.873L207.876 241.029C235.121 253.974 260.262 248.999 273.055 238.811L262.157 217.83C256.616 207.182 254.636 195.037 256.509 183.18L261.205 153.471L248.293 145.582L234.183 142.857Z" fill="#49467A"/>
<path d="M222.583 209.998C225.598 209.186 228.507 208.022 231.249 206.53C237.554 203.104 242.956 198.233 247.013 192.315C248.789 189.746 250.254 186.975 251.377 184.061C249.818 186.331 247.975 188.87 245.834 191.419C241.397 196.73 236.228 201.382 230.482 205.236C227.724 207.098 225 208.667 222.583 209.974V209.998Z" fill="#32305F"/>
<path d="M244.062 191.22C237.584 194.858 230.574 197.453 223.289 198.911C230.911 198.917 238.281 196.188 244.062 191.22Z" fill="#32305F"/>
<path d="M246.265 178.512C244.264 179.745 242.054 180.599 239.745 181.033C237.18 181.502 234.545 181.433 232.007 180.829C230.736 180.506 229.505 180.044 228.335 179.451C227.174 178.849 226.056 178.124 224.91 177.47C223.806 176.807 222.625 176.281 221.394 175.906C220.281 175.569 219.105 175.492 217.958 175.684C219.071 175.758 220.159 176.048 221.162 176.537C222.263 177.069 223.311 177.703 224.294 178.432C225.345 179.171 226.426 179.991 227.648 180.702C228.902 181.413 230.245 181.951 231.643 182.303C234.399 182.968 237.281 182.912 240.01 182.142C241.249 181.776 242.439 181.262 243.554 180.611C244.54 180.022 245.45 179.316 246.265 178.508V178.512Z" fill="#32305F"/>
<path d="M231.68 165.942C230.288 161.097 228.415 156.403 226.089 151.931C227.485 156.775 229.36 161.469 231.685 165.942H231.68Z" fill="#32305F"/>
<path d="M241.252 156.93C238.103 158.19 235.087 159.76 232.249 161.616C235.398 160.357 238.414 158.787 241.252 156.93Z" fill="#32305F"/>
<path d="M244.426 133.599L244.303 133.205L232.988 136.759L234.182 142.857C236.516 142.692 238.731 141.763 240.484 140.213C242.41 138.435 243.779 136.138 244.426 133.599Z" fill="black"/>
<path d="M248.269 145.582L244.427 133.599C243.783 136.145 242.413 138.449 240.484 140.232C238.731 141.782 236.517 142.711 234.183 142.876L236.187 153.125L248.269 145.582Z" fill="#F99B8C"/>
<path d="M234.183 142.857L229.71 147.036C229.113 147.594 228.687 148.309 228.48 149.099C228.273 149.889 228.293 150.721 228.539 151.5L231.33 160.332L240.096 155.3C242.926 153.672 245.24 151.279 246.772 148.396L248.269 145.582L234.183 142.857Z" fill="#F99B8C"/>
<path d="M215.935 86.2968L217.589 83.6102L217.65 82.9232C217.761 81.7245 218.333 80.6157 219.245 79.83C220.157 79.0443 221.338 78.6431 222.54 78.7109C223.631 78.7725 224.665 79.2168 225.461 79.9656C226.256 80.7143 226.762 81.7197 226.89 82.8047L227.222 85.6476L220.749 88.0168L215.935 86.2968Z" fill="#E38673"/>
<path d="M229.079 140L207.876 124.866L215.301 90.9165L225.251 89.0212L229.079 85.4675L228.416 85.2259C227.152 84.7664 225.766 84.7664 224.502 85.2259L220.513 86.6474L213.855 86.1025C213.058 86.0394 212.266 86.288 211.648 86.7961C211.029 87.3041 210.632 88.032 210.539 88.827L210.496 89.1729L198.584 123.478C198.022 125.086 197.974 126.829 198.446 128.465C198.918 130.102 199.887 131.551 201.219 132.613L221.92 149.074L229.079 140Z" fill="#F99B8C"/>
<path d="M221.92 149.083L228.136 141.194L219.309 147.003L221.92 149.083Z" fill="black"/>
<path d="M238.049 109.737C234.666 111.9 230.73 113.037 226.715 113.011C226.336 113.81 226.049 114.649 225.857 115.513L223.611 125.582C223.275 127.1 223.24 128.671 223.511 130.203C223.781 131.735 224.35 133.199 225.186 134.511C226.022 135.823 227.108 136.958 228.383 137.85C229.657 138.742 231.095 139.374 232.614 139.711C235.678 140.387 238.885 139.82 241.532 138.134C244.178 136.448 246.047 133.781 246.729 130.718L247.677 126.43C242.593 122.181 239.181 116.265 238.049 109.737Z" fill="#F49187"/>
<path d="M238.693 117.763C239.301 118.064 239.842 118.486 240.282 119.002C240.721 119.519 241.052 120.119 241.252 120.767L234.784 117.503C235.419 117.279 236.093 117.186 236.765 117.231C237.438 117.276 238.093 117.457 238.693 117.763Z" fill="#EFBB5A"/>
<path d="M229.06 115.082C228.476 115.073 227.897 115.181 227.355 115.399C226.813 115.617 226.32 115.941 225.905 116.351L231.411 116.735C231.21 116.27 230.884 115.869 230.469 115.577C230.054 115.285 229.567 115.113 229.06 115.082Z" fill="#EFBB5A"/>
<path d="M227.985 125.16L231.339 126.657C231.093 127.02 230.736 127.292 230.321 127.433C229.907 127.574 229.457 127.576 229.041 127.439C228.269 127.121 227.838 125.98 227.985 125.16Z" fill="#E87A74"/>
<path d="M226.232 127.681L234.822 131.504C233.656 133.347 230.946 134.347 228.928 133.513C226.909 132.679 225.796 129.817 226.232 127.681Z" fill="white"/>
<path d="M237.845 122.923C237.787 122.557 237.646 122.209 237.433 121.906C237.219 121.602 236.939 121.352 236.613 121.175C236.288 120.997 235.926 120.897 235.555 120.881C235.185 120.865 234.815 120.935 234.476 121.085C234.758 120.825 235.114 120.659 235.495 120.611C235.945 120.537 236.408 120.616 236.809 120.835C237.209 121.054 237.526 121.4 237.708 121.819C237.866 122.164 237.914 122.55 237.845 122.923Z" fill="black"/>
<path d="M229.435 119.872C229.302 119.619 229.112 119.401 228.879 119.235C228.646 119.07 228.377 118.962 228.095 118.92C227.812 118.878 227.523 118.903 227.252 118.993C226.981 119.084 226.736 119.237 226.535 119.441C226.682 119.151 226.916 118.915 227.204 118.766C227.492 118.617 227.82 118.563 228.141 118.61C228.461 118.658 228.759 118.806 228.992 119.032C229.224 119.258 229.379 119.552 229.435 119.872Z" fill="black"/>
<path d="M260.409 158.346C261.362 156.217 261.864 153.913 261.883 151.58C261.903 149.247 261.439 146.936 260.522 144.79L251.586 123.904L259.404 89.0781L264.796 84.3825C266.669 82.7475 267.91 80.5075 268.302 78.0522L268.421 77.3083C268.521 76.6736 268.482 76.0247 268.307 75.4064C268.133 74.7881 267.826 74.2149 267.408 73.7264C266.991 73.2379 266.473 72.8455 265.889 72.5764C265.306 72.3073 264.671 72.1677 264.029 72.1673C263.007 72.1675 262.016 72.5194 261.223 73.164C260.43 73.8086 259.883 74.7065 259.674 75.7068L259.049 78.7061L254.614 82.7715C253.892 83.4338 253.329 84.2512 252.969 85.1622C252.609 86.0732 252.46 87.054 252.534 88.0309L241.726 118.233C240.529 121.577 240.62 125.248 241.981 128.529L250.51 149.083L248.359 157.162C247.892 158.903 247.831 160.728 248.182 162.496C248.533 164.264 249.286 165.928 250.382 167.359C250.958 168.11 251.735 168.685 252.622 169.015C253.51 169.345 254.473 169.418 255.4 169.225C256.403 169.018 257.319 168.511 258.026 167.77C258.732 167.029 259.197 166.091 259.357 165.08L260.409 158.346Z" fill="#F99B8C"/>
<path d="M65.9652 59.2509L59.8149 51.7123L63.9562 50.6036L72.0823 57.5119L65.9652 59.2509Z" fill="#D13C34"/>
<path d="M171.396 65.2021C170.604 63.5637 170.18 61.7719 170.154 59.9524C170.128 58.1328 170.5 56.3295 171.245 54.669C172.062 55.7507 173.084 56.6604 174.253 57.3461C174.204 58.6619 174.464 59.971 175.012 61.1683C175.56 62.3655 176.381 63.4177 177.409 64.2403C175.538 65.1285 173.451 65.4623 171.396 65.2021Z" fill="#D13C34"/>
<path d="M225.521 76.8676C225.347 75.4351 224.859 74.0585 224.094 72.8352C223.328 71.6119 222.303 70.5719 221.091 69.7887C222.339 68.891 223.743 68.2338 225.232 67.8508C227.115 69.1642 228.667 70.8964 229.767 72.9112C230.894 74.9435 231.505 77.2212 231.548 79.5448C229.833 78.0999 227.743 77.1715 225.521 76.8676Z" fill="#D13C34"/>
<path d="M203.346 162.014C197.773 161.497 192.798 158.82 189.662 154.906C191.621 154.505 193.494 153.757 195.191 152.698C196.932 153.672 198.86 154.262 200.847 154.43C202.835 154.599 204.835 154.341 206.715 153.675C206.327 156.698 205.167 159.57 203.346 162.014Z" fill="#D13C34"/>
<path d="M112.059 204.018C107.842 201.924 104.88 198.138 104.004 194.044C105.591 194.485 107.251 194.6 108.884 194.381C109.822 195.682 111.057 196.741 112.485 197.47C113.882 198.201 115.439 198.569 117.015 198.541C115.935 200.813 114.212 202.718 112.059 204.018Z" fill="#D13C34"/>
<path d="M75.1573 81.7386L68.4385 77.569L71.3288 75.6263L79.398 78.7867L75.1573 81.7386Z" fill="#49467A"/>
<path d="M91.4047 100.602L83.5439 100.758L84.9038 97.5691L93.3474 95.8349L91.4047 100.602Z" fill="#49467A"/>
<path d="M126.084 64.2165L121.332 55.7256L125.605 55.3513L132.414 63.5579L126.084 64.2165Z" fill="#49467A"/>
<path d="M237.239 59.1703L226.274 60.2838L227.81 55.6782L239.404 52.2999L237.239 59.1703Z" fill="#49467A"/>
<path d="M166.97 160.929L160.9 156.958L163.596 155.238L170.927 158.313L166.97 160.929Z" fill="#49467A"/>
<path d="M44.1835 80.1276L37.6826 76.716L40.2318 74.7165L47.922 77.1093L44.1835 80.1276Z" fill="#7DADC3"/>
<path d="M67.9839 105.577L68.0881 98.0618L71.0922 99.4643L72.4757 107.586L67.9839 105.577Z" fill="#7DADC3"/>
<path d="M136.892 82.5773L131.249 76.4933L134.717 75.323L142.014 80.7625L136.892 82.5773Z" fill="#7DADC3"/>
<path d="M70.609 198.129L63.8428 199.602L64.473 196.617L71.4808 193.684L70.609 198.129Z" fill="#7DADC3"/>
<path d="M158.896 195.788L154.765 187.155L158.982 187.056L165.151 195.542L158.896 195.788Z" fill="#7DADC3"/>
<path d="M224.421 223.132L218.167 218.617L221.114 216.921L228.752 220.545L224.421 223.132Z" fill="#7DADC3"/>
<path d="M41.4875 98.0476L36.6782 90.7886L40.4641 90.1679L47.0929 97.0384L41.4875 98.0476Z" fill="#EFBB5A"/>
<path d="M93.4187 147.032C90.7564 146.356 88.4115 144.777 86.7852 142.563C87.8257 142.402 88.8356 142.082 89.7797 141.616C91.5841 142.84 93.7808 143.347 95.9394 143.037C95.404 144.538 94.5432 145.902 93.4187 147.032Z" fill="#EFBB5A"/>
<path d="M157.707 141.962L153.642 134.788L157.257 134.452L163.066 141.379L157.707 141.962Z" fill="#EFBB5A"/>
<path d="M179.768 83.9134C177.699 84.7144 175.998 86.2516 174.992 88.2299C174.25 87.3791 173.641 86.4206 173.187 85.387C174.682 82.4039 177.297 80.1334 180.46 79.0709C179.862 80.6108 179.625 82.2676 179.768 83.9134Z" fill="#EFBB5A"/>
</g>
<defs>
<clipPath id="clip0_46_4382">
<rect x="44" y="17.5" width="200" height="200" rx="100" fill="white"/>
</clipPath>
</defs>
</svg>
