<svg width="20" height="20" viewBox="0 0 20 20" fill="none" xmlns="http://www.w3.org/2000/svg">
<path d="M15.8334 5.83333H15.0001V5C15.0001 4.33696 14.7367 3.70107 14.2678 3.23223C13.799 2.76339 13.1631 2.5 12.5001 2.5H4.16675C3.50371 2.5 2.86782 2.76339 2.39898 3.23223C1.93014 3.70107 1.66675 4.33696 1.66675 5V5V15C1.66675 15.663 1.93014 16.2989 2.39898 16.7678C2.86782 17.2366 3.50371 17.5 4.16675 17.5H15.8334C16.4965 17.5 17.1323 17.2366 17.6012 16.7678C18.07 16.2989 18.3334 15.663 18.3334 15V8.33333C18.3334 7.67029 18.07 7.03441 17.6012 6.56557C17.1323 6.09673 16.4965 5.83333 15.8334 5.83333ZM4.16675 4.16667H12.5001C12.7211 4.16667 12.9331 4.25446 13.0893 4.41074C13.2456 4.56702 13.3334 4.77899 13.3334 5V5.83333H4.16675C3.94573 5.83333 3.73377 5.74554 3.57749 5.58926C3.42121 5.43298 3.33341 5.22101 3.33341 5C3.33341 4.77899 3.42121 4.56702 3.57749 4.41074C3.73377 4.25446 3.94573 4.16667 4.16675 4.16667V4.16667ZM16.6667 12.5H15.8334C15.6124 12.5 15.4004 12.4122 15.2442 12.2559C15.0879 12.0996 15.0001 11.8877 15.0001 11.6667C15.0001 11.4457 15.0879 11.2337 15.2442 11.0774C15.4004 10.9211 15.6124 10.8333 15.8334 10.8333H16.6667V12.5ZM16.6667 9.16667H15.8334C15.1704 9.16667 14.5345 9.43006 14.0656 9.8989C13.5968 10.3677 13.3334 11.0036 13.3334 11.6667C13.3334 12.3297 13.5968 12.9656 14.0656 13.4344C14.5345 13.9033 15.1704 14.1667 15.8334 14.1667H16.6667V15C16.6667 15.221 16.579 15.433 16.4227 15.5893C16.2664 15.7455 16.0544 15.8333 15.8334 15.8333H4.16675C3.94573 15.8333 3.73377 15.7455 3.57749 15.5893C3.42121 15.433 3.33341 15.221 3.33341 15V7.35833C3.60114 7.45251 3.88294 7.50042 4.16675 7.5H15.8334C16.0544 7.5 16.2664 7.5878 16.4227 7.74408C16.579 7.90036 16.6667 8.11232 16.6667 8.33333V9.16667Z" fill="#404040"/>
</svg>
