<svg width="20" height="20" viewBox="0 0 20 20" fill="none" xmlns="http://www.w3.org/2000/svg">
<path d="M5.83341 12.5001H8.33341C8.55443 12.5001 8.76639 12.4123 8.92267 12.256C9.07895 12.0997 9.16675 11.8878 9.16675 11.6667C9.16675 11.4457 9.07895 11.2338 8.92267 11.0775C8.76639 10.9212 8.55443 10.8334 8.33341 10.8334H5.83341C5.6124 10.8334 5.40044 10.9212 5.24416 11.0775C5.08788 11.2338 5.00008 11.4457 5.00008 11.6667C5.00008 11.8878 5.08788 12.0997 5.24416 12.256C5.40044 12.4123 5.6124 12.5001 5.83341 12.5001ZM15.8334 4.16675H4.16675C3.50371 4.16675 2.86782 4.43014 2.39898 4.89898C1.93014 5.36782 1.66675 6.00371 1.66675 6.66675V14.1667C1.66675 14.8298 1.93014 15.4657 2.39898 15.9345C2.86782 16.4034 3.50371 16.6667 4.16675 16.6667H15.8334C16.4965 16.6667 17.1323 16.4034 17.6012 15.9345C18.07 15.4657 18.3334 14.8298 18.3334 14.1667V6.66675C18.3334 6.00371 18.07 5.36782 17.6012 4.89898C17.1323 4.43014 16.4965 4.16675 15.8334 4.16675ZM16.6667 14.1667C16.6667 14.3878 16.579 14.5997 16.4227 14.756C16.2664 14.9123 16.0544 15.0001 15.8334 15.0001H4.16675C3.94573 15.0001 3.73377 14.9123 3.57749 14.756C3.42121 14.5997 3.33341 14.3878 3.33341 14.1667V9.16675H16.6667V14.1667ZM16.6667 7.50008H3.33341V6.66675C3.33341 6.44573 3.42121 6.23377 3.57749 6.07749C3.73377 5.92121 3.94573 5.83341 4.16675 5.83341H15.8334C16.0544 5.83341 16.2664 5.92121 16.4227 6.07749C16.579 6.23377 16.6667 6.44573 16.6667 6.66675V7.50008Z" fill="#404040"/>
</svg>
